<svg width="23" height="23" viewBox="0 0 23 23" fill="none" xmlns="http://www.w3.org/2000/svg">
<path d="M11.239 21.366C16.7619 21.366 21.239 16.8888 21.239 11.366C21.239 5.84312 16.7619 1.36597 11.239 1.36597C5.71617 1.36597 1.23901 5.84312 1.23901 11.366C1.23901 16.8888 5.71617 21.366 11.239 21.366Z" stroke="#626262" stroke-width="2" stroke-linecap="round" stroke-linejoin="round"/>
<path d="M11.239 15.366C13.4482 15.366 15.239 13.5751 15.239 11.366C15.239 9.15683 13.4482 7.36597 11.239 7.36597C9.02987 7.36597 7.23901 9.15683 7.23901 11.366C7.23901 13.5751 9.02987 15.366 11.239 15.366Z" stroke="#626262" stroke-width="2" stroke-linecap="round" stroke-linejoin="round"/>
<path d="M20.409 7.36597H11.239" stroke="#626262" stroke-width="2" stroke-linecap="round" stroke-linejoin="round"/>
<path d="M3.18903 5.42603L7.77903 13.366" stroke="#626262" stroke-width="2" stroke-linecap="round" stroke-linejoin="round"/>
<path d="M10.119 21.306L14.699 13.366" stroke="#626262" stroke-width="2" stroke-linecap="round" stroke-linejoin="round"/>
</svg>
