<svg xmlns="http://www.w3.org/2000/svg" width="22" height="22" viewBox="0 0 22 22" fill="none"><path d="M11.5854 7.96153C12.9488 7.63858 13.7922 6.27153 13.4693 4.90814C13.1463 3.54475 11.7793 2.70131 10.4159 3.02426C9.05251 3.34721 8.20907 4.71425 8.53202 6.07764C8.85496 7.44103 10.222 8.28447 11.5854 7.96153Z" stroke="#3F3F3F" stroke-width="0.6875" stroke-miterlimit="10" stroke-linecap="round" stroke-linejoin="round"></path><path d="M9.36035 12.1344V11.3541" stroke="#3F3F3F" stroke-width="0.6875" stroke-miterlimit="10" stroke-linecap="round" stroke-linejoin="round"></path><path d="M7.91309 12.7462V10.4156C7.91309 9.78654 8.27059 9.18842 8.8859 8.78623L10.2265 7.90967" stroke="#3F3F3F" stroke-width="0.6875" stroke-miterlimit="10" stroke-linecap="round" stroke-linejoin="round"></path><path d="M12.6357 12.7016V11.3541" stroke="#3F3F3F" stroke-width="0.6875" stroke-miterlimit="10" stroke-linecap="round" stroke-linejoin="round"></path><path d="M11.7734 7.90967L13.1141 8.78623C13.7294 9.18842 14.0834 9.78654 14.0834 10.4156V12.0931" stroke="#3F3F3F" stroke-width="0.6875" stroke-miterlimit="10" stroke-linecap="round" stroke-linejoin="round"></path><path d="M0.911133 12.0759C2.03176 12.0759 2.03176 12.7634 3.15238 12.7634C4.27301 12.7634 4.27301 12.0759 5.39363 12.0759C6.51426 12.0759 6.51426 12.7634 7.63488 12.7634C8.75551 12.7634 8.75551 12.0759 9.87613 12.0759C10.9968 12.0759 10.9968 12.7634 12.1174 12.7634C13.238 12.7634 13.238 12.0759 14.3586 12.0759C15.4793 12.0759 15.4793 12.7634 16.5999 12.7634C17.7205 12.7634 17.7205 12.0759 18.8446 12.0759C19.9652 12.0759 19.9652 12.7634 21.0893 12.7634" stroke="#3F3F3F" stroke-width="0.6875" stroke-miterlimit="10" stroke-linecap="round" stroke-linejoin="round"></path><path d="M0.911133 14.0388C2.03176 14.0388 2.03176 14.7263 3.15238 14.7263C4.27301 14.7263 4.27301 14.0388 5.39363 14.0388C6.51426 14.0388 6.51426 14.7263 7.63488 14.7263C8.75551 14.7263 8.75551 14.0388 9.87613 14.0388C10.9968 14.0388 10.9968 14.7263 12.1174 14.7263C13.238 14.7263 13.238 14.0388 14.3586 14.0388C15.4793 14.0388 15.4793 14.7263 16.5999 14.7263C17.7205 14.7263 17.7205 14.0388 18.8446 14.0388C19.9652 14.0388 19.9652 14.7263 21.0893 14.7263" stroke="#3F3F3F" stroke-width="0.6875" stroke-miterlimit="10" stroke-linecap="round" stroke-linejoin="round"></path><path d="M14.0488 10.0753C14.1416 10.0616 14.2413 10.0547 14.3548 10.0547C15.4788 10.0547 15.4788 10.7422 16.5995 10.7422C17.7201 10.7422 17.7201 10.0547 18.8441 10.0547C19.9648 10.0547 19.9648 10.7422 21.0854 10.7422" stroke="#3F3F3F" stroke-width="0.6875" stroke-miterlimit="10" stroke-linecap="round" stroke-linejoin="round"></path><path d="M0.911133 10.0547C2.03176 10.0547 2.03176 10.7422 3.15238 10.7422C4.27301 10.7422 4.27301 10.0547 5.39363 10.0547C6.51082 10.0547 6.51082 10.7422 7.63145 10.7422C7.73457 10.7422 7.82738 10.7353 7.91332 10.725" stroke="#3F3F3F" stroke-width="0.6875" stroke-miterlimit="10" stroke-linecap="round" stroke-linejoin="round"></path><path d="M0.911133 16.39C2.03176 16.39 2.03176 17.0775 3.15238 17.0775C4.27301 17.0775 4.27301 16.39 5.39363 16.39C6.51426 16.39 6.51426 17.0775 7.63488 17.0775C8.75551 17.0775 8.75551 16.39 9.87613 16.39C10.9968 16.39 10.9968 17.0775 12.1174 17.0775C13.238 17.0775 13.238 16.39 14.3586 16.39C15.4793 16.39 15.4793 17.0775 16.5999 17.0775C17.7205 17.0775 17.7205 16.39 18.8446 16.39C19.9652 16.39 19.9652 17.0775 21.0893 17.0775" stroke="#3F3F3F" stroke-width="0.6875" stroke-miterlimit="10" stroke-linecap="round" stroke-linejoin="round"></path><path d="M0.911133 18.3563C2.03176 18.3563 2.03176 19.0438 3.15238 19.0438C4.27301 19.0438 4.27301 18.3563 5.39363 18.3563C6.51426 18.3563 6.51426 19.0438 7.63488 19.0438C8.75551 19.0438 8.75551 18.3563 9.87613 18.3563C10.9968 18.3563 10.9968 19.0438 12.1174 19.0438C13.238 19.0438 13.238 18.3563 14.3586 18.3563C15.4793 18.3563 15.4793 19.0438 16.5999 19.0438C17.7205 19.0438 17.7205 18.3563 18.8446 18.3563C19.9652 18.3563 19.9652 19.0438 21.0893 19.0438" stroke="#3F3F3F" stroke-width="0.6875" stroke-miterlimit="10" stroke-linecap="round" stroke-linejoin="round"></path></svg>