<svg xmlns="http://www.w3.org/2000/svg" width="512" height="512" viewBox="0 0 512 512" fill="none"><path d="M352.681 493.25H512V508.25H352.681V493.25Z" fill="#3F3F3F"></path><path d="M0 493.25H15V508.25H0V493.25Z" fill="#3F3F3F"></path><path d="M226.001 416.315H248.5V450.335H263.5V416.315H286C292.986 416.315 299.818 414.359 305.756 410.658L297.822 397.928C294.266 400.145 290.178 401.316 286 401.316H263.5V378.817C263.5 366.41 273.594 356.316 286 356.316H308.5V378.816C308.5 382.676 307.49 386.493 305.581 389.852L318.62 397.266C321.812 391.651 323.5 385.271 323.5 378.816V341.316H286C277.564 341.316 269.772 344.118 263.5 348.837V326.67H286C306.678 326.67 323.5 309.847 323.5 289.169V251.67H286C277.564 251.67 269.772 254.471 263.5 259.191V237.723H286C306.678 237.723 323.5 220.901 323.5 200.223V162.723H308.5V200.223C308.5 212.629 298.406 222.723 286 222.723H263.5V200.223C263.5 187.817 273.594 177.723 286 177.723H293.5V162.723H286C277.564 162.723 269.772 165.524 263.5 170.244V147.724H286C306.678 147.724 323.5 130.901 323.5 110.223V72.724H286C277.564 72.724 269.772 75.525 263.5 80.245V33.75H248.5V80.244C242.228 75.525 234.436 72.724 226.001 72.724H188.5V110.223C188.5 130.901 205.323 147.724 226.001 147.724H248.5V170.243C242.228 165.524 234.436 162.723 226.001 162.723H188.5V200.223C188.5 220.901 205.323 237.723 226.001 237.723H248.5V259.191C242.228 254.472 234.436 251.671 226.001 251.671H188.5V289.17C188.5 309.848 205.323 326.671 226.001 326.671H248.5V348.836C242.228 344.117 234.436 341.315 226.001 341.315H188.5V378.815C188.5 399.493 205.323 416.315 226.001 416.315ZM286 266.67H308.5V289.169C308.5 301.576 298.406 311.67 286 311.67H263.5V289.17C263.5 276.764 273.594 266.67 286 266.67ZM286 87.724H308.5V110.223C308.5 122.63 298.406 132.724 286 132.724H263.5V110.224C263.5 97.818 273.594 87.724 286 87.724ZM226.001 132.724C213.594 132.724 203.5 122.63 203.5 110.223V87.724H226.001C238.407 87.724 248.5 97.818 248.5 110.224V132.724H226.001ZM226.001 222.723C213.594 222.723 203.5 212.629 203.5 200.223V177.723H226.001C238.407 177.723 248.5 187.817 248.5 200.223V222.723H226.001ZM226.001 311.67C213.594 311.67 203.5 301.576 203.5 289.169V266.67H226.001C238.407 266.67 248.5 276.764 248.5 289.17V311.67H226.001ZM203.5 356.315H226.001C238.407 356.315 248.5 366.409 248.5 378.816V401.315H226.001C213.594 401.315 203.5 391.221 203.5 378.815V356.315Z" fill="#3F3F3F"></path><path d="M263.5 465.334H248.5V493.25H30.001V508.25H337.681V493.25H263.5V465.334Z" fill="#3F3F3F"></path><path d="M248.5 3.75H263.5V18.75H248.5V3.75Z" fill="#3F3F3F"></path><path d="M278.5 102.724H293.5V117.724H278.5V102.724Z" fill="#3F3F3F"></path><path d="M278.5 192.723H293.5V207.723H278.5V192.723Z" fill="#3F3F3F"></path><path d="M278.5 281.67H293.5V296.67H278.5V281.67Z" fill="#3F3F3F"></path><path d="M278.5 371.316H293.5V386.316H278.5V371.316Z" fill="#3F3F3F"></path><path d="M218.5 102.724H233.5V117.724H218.5V102.724Z" fill="#3F3F3F"></path><path d="M218.5 192.723H233.5V207.723H218.5V192.723Z" fill="#3F3F3F"></path><path d="M218.5 281.67H233.5V296.67H218.5V281.67Z" fill="#3F3F3F"></path><path d="M218.5 371.316H233.5V386.316H218.5V371.316Z" fill="#3F3F3F"></path><path d="M383.5 431.315H405.999V478.251H420.999V431.315H443.499C464.177 431.315 480.999 414.493 480.999 393.815V356.315H443.499C435.063 356.315 427.271 359.116 420.999 363.836V341.67H443.499C464.177 341.67 480.999 324.848 480.999 304.17V266.67H443.499C435.063 266.67 427.271 269.471 420.999 274.191V252.723H443.499C464.177 252.723 480.999 235.901 480.999 215.223V177.723H443.499C435.063 177.723 427.271 180.524 420.999 185.244V162.723H443.499C464.177 162.723 480.999 145.901 480.999 125.223V87.724H465.999V125.223C465.999 137.629 455.905 147.723 443.499 147.723H420.999V125.224C420.999 112.818 431.093 102.724 443.499 102.724H450.999V87.724H443.499C435.063 87.724 427.271 90.525 420.999 95.245V48.75H405.999V95.244C399.727 90.525 391.935 87.724 383.5 87.724H346V125.223C346 145.901 362.822 162.723 383.5 162.723H405.999V185.243C399.727 180.524 391.935 177.723 383.5 177.723H346V215.223C346 235.901 362.822 252.723 383.5 252.723H405.999V274.191C399.727 269.472 391.935 266.671 383.5 266.671H376V281.671H383.5C395.906 281.671 405.999 291.765 405.999 304.171V326.67H383.5C371.094 326.67 361 316.576 361 304.17V266.67H346V304.169C346 324.847 362.822 341.669 383.5 341.669H405.999V363.835C399.727 359.116 391.935 356.315 383.5 356.315H346V393.815C346 414.493 362.822 431.315 383.5 431.315ZM443.499 371.315H465.999V393.815C465.999 406.221 455.905 416.315 443.499 416.315H420.999V393.815C420.999 381.409 431.093 371.315 443.499 371.315ZM443.499 192.723H465.999V215.223C465.999 227.629 455.905 237.723 443.499 237.723H420.999V215.223C420.999 202.817 431.093 192.723 443.499 192.723ZM383.5 147.723C371.094 147.723 361 137.629 361 125.223V102.724H383.5C395.906 102.724 405.999 112.818 405.999 125.224V147.723H383.5ZM383.5 237.723C371.094 237.723 361 227.629 361 215.223V192.723H383.5C395.906 192.723 405.999 202.817 405.999 215.223V237.723H383.5ZM443.499 281.67H465.999V304.169C465.999 316.575 455.905 326.669 443.499 326.669H420.999V304.17C420.999 291.764 431.093 281.67 443.499 281.67ZM361 371.315H383.5C395.906 371.315 405.999 381.409 405.999 393.815V416.315H383.5C371.094 416.315 361 406.221 361 393.815V371.315Z" fill="#3F3F3F"></path><path d="M405.999 18.75H420.999V33.75H405.999V18.75Z" fill="#3F3F3F"></path><path d="M435.999 117.724H450.999V132.724H435.999V117.724Z" fill="#3F3F3F"></path><path d="M435.999 207.723H450.999V222.723H435.999V207.723Z" fill="#3F3F3F"></path><path d="M435.999 296.67H450.999V311.67H435.999V296.67Z" fill="#3F3F3F"></path><path d="M435.999 386.315H450.999V401.315H435.999V386.315Z" fill="#3F3F3F"></path><path d="M376 117.724H391V132.724H376V117.724Z" fill="#3F3F3F"></path><path d="M376 207.723H391V222.723H376V207.723Z" fill="#3F3F3F"></path><path d="M376 296.67H391V311.67H376V296.67Z" fill="#3F3F3F"></path><path d="M376 386.315H391V401.315H376V386.315Z" fill="#3F3F3F"></path><path d="M68.501 431.315H91.001V478.251H106.001V431.315H128.501C149.179 431.315 166.001 414.493 166.001 393.815V356.315H128.501C120.065 356.315 112.273 359.116 106.001 363.836V341.67H128.501C149.179 341.67 166.001 324.848 166.001 304.17V266.67H128.501C120.065 266.67 112.273 269.471 106.001 274.191V252.723H128.501C149.179 252.723 166.001 235.901 166.001 215.223V177.723H128.501C120.065 177.723 112.273 180.524 106.001 185.244V162.723H128.501C149.179 162.723 166.001 145.901 166.001 125.223V87.724H151.001V125.223C151.001 137.629 140.907 147.723 128.501 147.723H106.001V125.224C106.001 112.818 116.095 102.724 128.501 102.724H136.001V87.724H128.501C120.065 87.724 112.273 90.525 106.001 95.245V48.75H91.001V95.244C84.729 90.525 76.937 87.723 68.501 87.723H31.001V125.222C31.001 145.9 47.823 162.722 68.501 162.722H91.001V185.243C84.729 180.524 76.937 177.722 68.501 177.722H31.001V215.222C31.001 235.9 47.823 252.722 68.501 252.722H91.001V274.19C84.729 269.471 76.937 266.669 68.501 266.669H61.001V281.669H68.501C80.907 281.669 91.001 291.763 91.001 304.169V326.668H68.501C56.095 326.668 46.001 316.574 46.001 304.168V266.67H31.001V304.169C31.001 324.847 47.823 341.669 68.501 341.669H91.001V363.835C84.729 359.116 76.937 356.314 68.501 356.314H31.001V393.814C31.001 414.493 47.823 431.315 68.501 431.315ZM128.501 371.315H151.001V393.815C151.001 406.221 140.907 416.315 128.501 416.315H106.001V393.815C106.001 381.409 116.095 371.315 128.501 371.315ZM128.501 192.723H151.001V215.223C151.001 227.629 140.907 237.723 128.501 237.723H106.001V215.223C106.001 202.817 116.095 192.723 128.501 192.723ZM68.501 147.723C56.095 147.723 46.001 137.629 46.001 125.223V102.724H68.501C80.907 102.724 91.001 112.818 91.001 125.224V147.723H68.501ZM68.501 237.723C56.095 237.723 46.001 227.629 46.001 215.223V192.723H68.501C80.907 192.723 91.001 202.817 91.001 215.223V237.723H68.501ZM128.501 281.67H151.001V304.169C151.001 316.575 140.907 326.669 128.501 326.669H106.001V304.17C106.001 291.764 116.095 281.67 128.501 281.67ZM46.001 371.315H68.501C80.907 371.315 91.001 381.409 91.001 393.815V416.315H68.501C56.095 416.315 46.001 406.221 46.001 393.815V371.315Z" fill="#3F3F3F"></path><path d="M91.001 18.75H106.001V33.75H91.001V18.75Z" fill="#3F3F3F"></path><path d="M121 117.724H136.001V132.724H121V117.724Z" fill="#3F3F3F"></path><path d="M121 207.723H136.001V222.723H121V207.723Z" fill="#3F3F3F"></path><path d="M121 296.67H136.001V311.67H121V296.67Z" fill="#3F3F3F"></path><path d="M121 386.315H136.001V401.315H121V386.315Z" fill="#3F3F3F"></path><path d="M61.001 117.724H76.001V132.724H61.001V117.724Z" fill="#3F3F3F"></path><path d="M61.001 207.723H76.001V222.723H61.001V207.723Z" fill="#3F3F3F"></path><path d="M61.001 296.67H76.001V311.67H61.001V296.67Z" fill="#3F3F3F"></path><path d="M61.001 386.315H76.001V401.315H61.001V386.315Z" fill="#3F3F3F"></path></svg>